<?xml version="1.0" encoding="UTF-8"?>
<svg id="Layer_2" data-name="Layer 2" xmlns="http://www.w3.org/2000/svg" width="350mm" height="320mm" xmlns:xlink="http://www.w3.org/1999/xlink" version="1.1" viewBox="0 0 992.1 907.1">
  <defs>
    <style>
      .cls-1 {
        fill: #348efb;
      }

      .cls-1, .cls-2, .cls-3, .cls-4, .cls-5, .cls-6, .cls-7, .cls-8, .cls-9, .cls-10, .cls-11, .cls-12, .cls-13 {
        stroke-width: 0px;
      }

      .cls-2 {
        fill: #acacac;
      }

      .cls-3 {
        fill: #c3c3c3;
      }

      .cls-4 {
        fill: #314eb7;
      }

      .cls-5 {
        fill: #838383;
      }

      .cls-6 {
        fill: #252525;
      }

      .cls-14 {
        filter: url(#drop-shadow-1);
      }

      .cls-7 {
        fill: #0f867b;
      }

      .cls-8 {
        fill: #ddd;
      }

      .cls-9 {
        fill: #92a2a7;
      }

      .cls-10 {
        fill: #fb8a02;
      }

      .cls-11 {
        fill: #73b62f;
      }

      .cls-12 {
        fill: #ccc;
      }

      .cls-13 {
        fill: #fff;
      }
    </style>
    <filter id="drop-shadow-1" filterUnits="userSpaceOnUse">
      <feOffset dx="34" dy="48.2"/>
      <feGaussianBlur result="blur" stdDeviation="34"/>
      <feFlood flood-color="#444" flood-opacity=".4"/>
      <feComposite in2="blur" operator="in"/>
      <feComposite in="SourceGraphic"/>
    </filter>
  </defs>
  <g class="cls-14">
    <path class="cls-8" d="M787.7,403.2c0,39.6-7.6,77.3-21.3,112l-146.6-42.1c10.6-21,16.7-44.7,16.7-69.9,0-85.6-69.4-154.9-154.9-154.9-2.7,0-5.3,0-8,.2V97.4c2.7,0,5.3-.2,8-.2,169,0,306.1,137,306.1,306.1Z"/>
    <path class="cls-10" d="M474.8,558c2.3,0,4.5.2,6.8.2,77.6,0,141.8-57,153.1-131.4l149.4,22.9c-19.4,127.6-117.6,229.3-243.5,253.9l-69.7-58.7,3.8-86.8Z"/>
    <path class="cls-12" d="M395.2,274.7l-84.3-125.5c48.8-32.9,107.5-52,170.8-52v151.2c-32,0-61.7,9.7-86.4,26.3Z"/>
    <path class="cls-4" d="M320.3,143.2l79.7,128.4c-44,27.3-73.2,76-73.2,131.6,0,19.1,3.5,37.5,9.8,54.4l-141.5,53.1c-12.5-33.4-19.5-69.6-19.5-107.5,0-109.8,57.9-206.1,144.7-260.1Z"/>
    <path class="cls-1" d="M330.1,435.6c6.9,32.6,24.1,61.4,48.1,82.9l-100.9,112.5c-47.3-42.4-81.3-99.4-95-163.8l147.8-31.6Z"/>
    <path class="cls-7" d="M363.2,503c27.7,32.9,68.9,54.1,115.2,55.1,7.7.2,15.2-.3,22.6-1.2l19.1,150c-14.6,1.8-29.7,2.6-44.8,2.3-91.6-1.9-172.9-43.9-227.7-108.9l115.6-97.3Z"/>
    <path class="cls-11" d="M498.9,557.2c21.6-2.4,41.9-9.2,59.9-19.6l70.9,133.5c-33.2,18.4-70.3,30.9-109.6,35.8l-21.2-149.8Z"/>
  </g>
  <g>
    <path class="cls-6" d="M404.2,9.2h6.1v-4h4.3v5.5h5.7V3.7h4.3v17h-4.3v-6.4h-5.7v5.5h-14.8V5.2h4.4v4ZM408.3,24.9h12.1v-2.9h4.3v12.4h-20.7v-12.4h4.3v2.9ZM410.3,16.3v-3.7h-6.1v3.7h6.1ZM420.4,30.9v-2.7h-12.1v2.7h12.1Z"/>
    <path class="cls-6" d="M457.2,31.1h-28.5v-3.5h12v-6.9h4.4v6.9h12.1v3.5ZM454.7,9.5h-9.5c.4,4.1,4.2,7.9,10.9,8.9l-1.7,3.5c-5.5-1-9.5-3.6-11.5-7.3-2,3.8-6,6.5-11.3,7.5l-1.7-3.5c6.5-1,10.3-4.9,10.7-9.1h-9.5v-3.5h23.6v3.5Z"/>
    <path class="cls-6" d="M479.5,33.4h-4.1v-10.3h-4.4v-3.5h4.4v-4.2h-3.8c-1.5,5.1-4.6,9.5-10.4,12.9l-2.6-3.1c6.3-3.7,9.1-8.3,9.7-14.4h-7.9v-3.5h12.2c0,1.6-.1,3.1-.3,4.5h3.1v-7.5h4.1v29.1ZM486,34.8h-4.1V3.7h4.1v31.1Z"/>
    <path class="cls-6" d="M411.4,58.7h-2.4v7.8c1.2,0,2.4-.2,3.6-.3v1.2c-4.4.7-9.8.8-13.7.8l-.2-1.4h3.1v-8.1h-2.4v-1.3h12.1v1.3ZM417.1,77.1h-15v-7h1.6v5.6h13.4v1.3ZM407.4,66.6v-7.9h-4.1v8c1.3,0,2.7,0,4.1-.2ZM416,62.2h3.5v1.4h-3.5v8.2h-1.6v-16.5h1.6v7Z"/>
    <path class="cls-6" d="M434.3,71l-1,1.3c-2.5-1.3-4.7-4.1-5.7-7.3-1,3.4-3.3,6.4-5.8,7.7l-1-1.3c3.1-1.6,6-5.9,6-10v-4.3h1.6v4.3c0,3.9,2.9,8,5.9,9.5ZM438.3,64.4h3.9v1.4h-3.9v11.8h-1.6v-22.4h1.6v9.2Z"/>
    <path class="cls-6" d="M444.9,80.6h-1.5l1.4-6.6h1.9l-1.9,6.6Z"/>
    <path class="cls-6" d="M457.2,68.1l-.7-1.3c5.5-1.6,9.1-4.7,9.5-8.8h-8.4v-1.3h10.1c0,5.5-4.1,9.5-10.6,11.4ZM474.7,77.3h-14.4v-8.2h14.4v8.2ZM461.8,75.9h11.3v-5.6h-11.3v5.6ZM474.7,68.1h-1.6v-5.6h-5.3v-1.3h5.3v-5.9h1.6v12.9Z"/>
    <path class="cls-6" d="M491.9,71l-1,1.3c-2.5-1.3-4.7-4.1-5.7-7.3-1,3.4-3.3,6.4-5.8,7.7l-1-1.3c3.1-1.6,6-5.9,6-10v-4.3h1.6v4.3c0,3.9,2.9,8,5.9,9.5ZM496,64.4h3.9v1.4h-3.9v11.8h-1.6v-22.4h1.6v9.2Z"/>
    <path class="cls-6" d="M502.6,80.6h-1.5l1.4-6.6h1.9l-1.9,6.6Z"/>
    <path class="cls-6" d="M532.4,71.8h-1.6v-6.2h-5.7v2.3h-10v-11.2h1.6v4.2h6.8v-4.2h1.6v2.7h5.7v-4.2h1.6v16.6ZM523.5,66.5v-4.4h-6.8v4.4h6.8ZM532.9,77.1h-14.9v-6.9h1.6v5.5h13.3v1.3ZM530.8,64.3v-3.5h-5.7v3.5h5.7Z"/>
    <path class="cls-6" d="M556.9,74.8h-20.5v-1.3h9.4v-3.4c-4-.1-6.5-1.7-6.5-4.2s2.8-4.2,7.3-4.2c4.5,0,7.3,1.5,7.3,4.2s-2.5,4.1-6.5,4.2v3.4h9.5v1.3ZM555.7,60h-18.2v-1.4h8.4v-3h1.6v3h8.3v1.4ZM540.9,65.9c0,1.8,2.2,2.9,5.7,2.9s5.7-1.1,5.7-2.9-2.2-2.9-5.7-2.9-5.7,1.1-5.7,2.9Z"/>
    <path class="cls-6" d="M572.1,71l-1,1.3c-2.5-1.3-4.7-4.1-5.7-7.3-1,3.4-3.3,6.4-5.8,7.7l-1-1.3c3.1-1.6,6-5.9,6-10v-4.3h1.6v4.3c0,3.9,2.9,8,5.9,9.5ZM576.1,64.4h3.9v1.4h-3.9v11.8h-1.6v-22.4h1.6v9.2Z"/>
    <path class="cls-6" d="M608,67.4h-20.4v-1.4h20.4v1.4ZM605.5,73.5c0,2.6-2.9,4-7.7,4s-7.7-1.4-7.7-4,2.9-4,7.7-4c4.8,0,7.7,1.5,7.7,4ZM605.6,63.7h-15.4v-7.5h15.2v1.4h-13.7v4.8h13.8v1.3ZM591.7,73.5c0,1.7,2.3,2.7,6.1,2.7s6.1-1,6.1-2.7-2.4-2.7-6.1-2.7c-3.8,0-6.1,1-6.1,2.7Z"/>
  </g>
  <g>
    <path class="cls-6" d="M401.9,413.2v-4.1c-5.3-.9-8.8-4.2-8.7-8.8,0-5.4,4.9-9.1,12-9.1s12.2,3.7,12.2,9.1-3.4,7.8-8.8,8.8v3.9c4-.2,8.1-.5,12-1l.5,5c-10.6,1.8-22,1.9-30.6,1.9l-.9-5.5c3.7,0,7.9,0,12.3-.2ZM419.9,389.4h-29.4v-5.3h11.4v-5.1h6.7v5.1h11.3v5.3ZM399.6,400.4c0,2.5,2.3,3.9,5.6,3.9s5.7-1.4,5.7-3.9-2.3-3.9-5.7-3.9-5.6,1.4-5.6,3.9ZM430,427h-6.7v-48.3h6.7v48.3Z"/>
    <path class="cls-6" d="M478.3,426.2h-36v-14.4h6.7v-6.4c-4.3.2-8.4.2-12.1.2l-.8-5.4c8.9,0,20.8-.2,31-1.4l.4,4.8c-3.8.6-7.8,1.1-11.7,1.4v9.2h-6.8v6.6h29.2v5.4ZM464,389.1c0,5.1-5,8.5-12,8.5s-12.2-3.3-12.2-8.5,4.9-8.7,12.2-8.7c7,0,12,3.5,12,8.7ZM446.2,389.1c0,2.3,2.3,3.6,5.7,3.6s5.6-1.3,5.6-3.6c0-2.4-2.4-3.7-5.6-3.7s-5.8,1.3-5.7,3.7ZM477.3,415.2h-6.8v-3.8h-9.2v-4.6h9.2v-28h6.8v36.5Z"/>
    <path class="cls-6" d="M510.3,389.2h-26.9v-5.4h10.4v-5.1h6.7v5.1h9.7v5.4ZM508.6,400.4c0,5.6-4.8,9.4-11.5,9.4s-11.4-3.9-11.3-9.4c0-5.6,4.7-9.5,11.3-9.5s11.4,3.9,11.5,9.5ZM525,426.2h-33.2v-13.7h6.8v8.3h26.3v5.4ZM492.1,400.4c0,2.8,2,4.3,5,4.3s5-1.5,5.1-4.3c0-2.7-2.2-4.2-5.1-4.2-3,0-5,1.5-5,4.2ZM524,415.6h-6.7v-9.1h-6.5v-5.4h6.5v-4.8h-6.5v-5.5h6.5v-12h6.7v36.8Z"/>
    <path class="cls-6" d="M541.5,404.8v-2.8c-5.3-.7-8.5-3.2-8.5-6.7,0-4.3,4.6-6.9,11.8-6.9s11.8,2.6,11.8,6.9c0,3.6-3.2,6-8.4,6.7v2.6c4-.2,7.9-.5,11.7-1l.5,4.6c-10.2,1.8-21.4,1.9-29.9,1.9l-.7-5.1c3.5,0,7.5,0,11.7-.2ZM558.7,387.2h-27.7v-5h10.5v-3.8h6.7v3.8h10.5v5ZM569.1,419.4c0,5-6,7.6-16.5,7.6s-16.5-2.7-16.5-7.6,6-7.7,16.5-7.6c10.5,0,16.5,2.7,16.5,7.6ZM539.5,395.2c0,1.7,1.9,2.5,5.4,2.5s5.3-.8,5.4-2.5c0-1.6-2-2.5-5.4-2.5s-5.4.9-5.4,2.5ZM542.9,419.4c0,1.8,3,2.7,9.7,2.7s9.6-.9,9.7-2.7c0-1.9-3.1-2.8-9.7-2.8s-9.8.9-9.7,2.8ZM568.9,392.5h6.2v5.6h-6.2v13.3h-6.8v-32.6h6.8v13.7Z"/>
  </g>
  <g>
    <path class="cls-6" d="M825,180.9l.3,3.1c-6.9,1.3-14.3,1.4-19.7,1.4l-.5-3.6c5.5,0,13.2,0,19.9-1ZM823.6,170.4c0,4.5-3.7,7.7-8.6,7.7s-8.6-3.2-8.6-7.7,3.7-7.7,8.6-7.6c4.9,0,8.6,3.2,8.6,7.6ZM810.7,170.4c0,2.5,1.8,3.9,4.3,3.9s4.3-1.4,4.4-3.9c0-2.4-1.9-3.9-4.4-3.9s-4.3,1.4-4.3,3.9ZM831.1,191.8h-4.3v-31.2h4.3v31.2Z"/>
    <path class="cls-6" d="M863.7,188.3h-28.5v-3.6h7.3v-4.8h-4v-10.5h17.6v-3.3h-17.6v-3.5h21.9v10.3h-17.5v3.5h18.3v3.5h-4.4v4.8h7v3.6ZM852.4,184.7v-4.8h-5.7v4.8h5.7Z"/>
    <path class="cls-6" d="M885.9,190.4h-4.1v-10.3h-4.4v-3.5h4.4v-4.2h-3.8c-1.5,5.1-4.6,9.5-10.4,12.9l-2.6-3.1c6.3-3.7,9.1-8.3,9.7-14.4h-7.9v-3.5h12.2c0,1.6-.1,3.1-.3,4.5h3.1v-7.5h4.1v29.1ZM892.4,191.7h-4.1v-31.1h4.1v31.1Z"/>
    <path class="cls-6" d="M820.1,227.4v1.2c-5.1,1-10.6,1-14.7,1l-.3-1.4c4.2,0,9.9,0,15-.8ZM818.3,219c0,3.1-2.5,5.2-6,5.2s-6-2.1-6-5.2,2.5-5.2,6-5.2,6,2.1,6,5.2ZM807.9,219c0,2.2,1.9,3.8,4.4,3.8,2.6,0,4.4-1.6,4.4-3.8s-1.9-3.8-4.4-3.8-4.4,1.6-4.4,3.8ZM823.2,234.6h-1.6v-22.4h1.6v22.4Z"/>
    <path class="cls-6" d="M840.7,228l-1,1.3c-2.5-1.3-4.7-4.1-5.7-7.3-1,3.4-3.3,6.4-5.8,7.7l-1-1.3c3.1-1.6,6-5.9,6-10v-4.3h1.6v4.3c0,3.9,2.9,8,5.9,9.5ZM844.7,221.4h3.9v1.4h-3.9v11.8h-1.6v-22.4h1.6v9.2Z"/>
    <path class="cls-6" d="M851.4,237.6h-1.5l1.4-6.6h1.9l-1.9,6.6Z"/>
    <path class="cls-6" d="M876.9,228.5l-.9,1.3c-2.6-1.2-4.9-3.7-5.9-6.8-1,3.3-3.3,6-5.9,7.2l-.9-1.2c3.2-1.5,6-5.3,6-9.4v-2.1h-5.4v-1.3h5.4v-3.6h1.6v3.6h5.4v1.3h-5.4v2.1c0,3.9,2.9,7.6,6.1,9ZM881.1,234.6h-1.6v-22.4h1.6v22.4Z"/>
    <path class="cls-6" d="M891.6,228c2.6,0,5.2-.3,7.6-.6v1.2c-4.6.7-10,.8-14,.8l-.3-1.4c1.5,0,3.3,0,5.1,0v-7h1.6v6.9ZM897.5,215.7c0,1.7,0,4.7-.7,9h-1.6c.6-4.1.7-6.9.7-8.6h-9.7v-1.3h11.3v1ZM902.3,221.7h3.8v1.4h-3.8v11.5h-1.6v-22.4h1.6v9.5Z"/>
    <path class="cls-6" d="M922.7,227.4v1.2c-5.1,1-10.6,1-14.7,1l-.3-1.4c4.2,0,9.9,0,15-.8ZM921,219c0,3.1-2.5,5.2-6,5.2s-6-2.1-6-5.2,2.5-5.2,6-5.2,6,2.1,6,5.2ZM910.6,219c0,2.2,1.9,3.8,4.4,3.8,2.6,0,4.4-1.6,4.4-3.8s-1.9-3.8-4.4-3.8-4.4,1.6-4.4,3.8ZM925.9,234.6h-1.6v-22.4h1.6v22.4Z"/>
    <path class="cls-6" d="M943.3,228l-1,1.3c-2.5-1.3-4.7-4.1-5.7-7.3-1,3.4-3.3,6.4-5.8,7.7l-1-1.3c3.1-1.6,6-5.9,6-10v-4.3h1.6v4.3c0,3.9,2.9,8,5.9,9.5ZM947.4,221.4h3.9v1.4h-3.9v11.8h-1.6v-22.4h1.6v9.2Z"/>
    <path class="cls-6" d="M954,237.6h-1.5l1.4-6.6h1.9l-1.9,6.6Z"/>
    <path class="cls-6" d="M818.4,252.4h-13.4v-1.3h5.9v-2.8h1.6v2.8h5.9v1.3ZM817.1,257.9c0,2.5-2.2,4.1-5.3,4.1s-5.4-1.6-5.4-4.1,2.1-4.1,5.4-4.1,5.3,1.6,5.3,4.1ZM807.9,257.9c0,1.7,1.5,2.8,3.8,2.8,2.3,0,3.8-1.1,3.8-2.8,0-1.7-1.5-2.8-3.8-2.8s-3.9,1.1-3.8,2.8ZM823.5,270.1h-15v-6.4h1.6v5.1h13.4v1.3ZM822.5,255.8h3.5v1.4h-3.5v7.9h-1.6v-16.8h1.6v7.6Z"/>
    <path class="cls-6" d="M842.6,263.4v1.2c-5.1,1-10.6,1-14.7,1l-.3-1.4c4.2,0,9.9,0,15-.8ZM840.8,255c0,3.1-2.5,5.2-6,5.2s-6-2.1-6-5.2,2.5-5.2,6-5.2,6,2.1,6,5.2ZM830.4,255c0,2.2,1.9,3.8,4.4,3.8,2.6,0,4.4-1.6,4.4-3.8s-1.9-3.8-4.4-3.8-4.4,1.6-4.4,3.8ZM845.7,270.6h-1.6v-22.4h1.6v22.4Z"/>
    <path class="cls-6" d="M863.2,264l-1,1.3c-2.5-1.3-4.7-4.1-5.7-7.3-1,3.4-3.3,6.4-5.8,7.7l-1-1.3c3.1-1.6,6-5.9,6-10v-4.3h1.6v4.3c0,3.9,2.9,8,5.9,9.5ZM867.2,257.4h3.9v1.4h-3.9v11.8h-1.6v-22.4h1.6v9.2Z"/>
    <path class="cls-6" d="M873.8,273.6h-1.5l1.4-6.6h1.9l-1.9,6.6Z"/>
    <path class="cls-6" d="M905.6,262.3h-9.5v8.3h-1.5v-8.3h-9.4v-1.4h20.4v1.4ZM904.5,256.9l-.7,1.3c-3.3-.6-7-2.6-8.4-5.4-1.4,2.9-5.1,4.8-8.4,5.4l-.7-1.3c3.7-.6,8.3-3.1,8.3-6.6v-1.3h1.7v1.3c0,3.3,4.6,6,8.3,6.6Z"/>
    <path class="cls-6" d="M922.7,263.4v1.2c-5.1,1-10.6,1-14.7,1l-.3-1.4c4.2,0,9.9,0,15-.8ZM921,255c0,3.1-2.5,5.2-6,5.2s-6-2.1-6-5.2,2.5-5.2,6-5.2,6,2.1,6,5.2ZM910.6,255c0,2.2,1.9,3.8,4.4,3.8,2.6,0,4.4-1.6,4.4-3.8s-1.9-3.8-4.4-3.8-4.4,1.6-4.4,3.8ZM925.9,270.6h-1.6v-22.4h1.6v22.4Z"/>
    <path class="cls-6" d="M943.3,264l-1,1.3c-2.5-1.3-4.7-4.1-5.7-7.3-1,3.4-3.3,6.4-5.8,7.7l-1-1.3c3.1-1.6,6-5.9,6-10v-4.3h1.6v4.3c0,3.9,2.9,8,5.9,9.5ZM947.4,257.4h3.9v1.4h-3.9v11.8h-1.6v-22.4h1.6v9.2Z"/>
    <path class="cls-6" d="M954,273.6h-1.5l1.4-6.6h1.9l-1.9,6.6Z"/>
    <path class="cls-6" d="M817.1,290.8c0,3.1-2.4,5.2-5.8,5.2s-5.8-2.1-5.8-5.2,2.4-5.2,5.8-5.2,5.8,2.1,5.8,5.2ZM807.1,290.8c0,2.3,1.8,3.9,4.2,3.9s4.2-1.6,4.2-3.9c0-2.2-1.8-3.8-4.2-3.8s-4.3,1.6-4.2,3.8ZM822.5,306.6h-1.6v-6.6h-12.9v-1.3h14.5v8ZM825.9,289.1h-3.4v3.4h3.4v1.4h-3.4v3.6h-1.6v-13.3h1.6v3.6h3.4v1.3Z"/>
    <path class="cls-6" d="M840.7,300l-1,1.3c-2.5-1.3-4.7-4.1-5.7-7.3-1,3.4-3.3,6.4-5.8,7.7l-1-1.3c3.1-1.6,6-5.9,6-10v-4.3h1.6v4.3c0,3.9,2.9,8,5.9,9.5ZM844.7,293.4h3.9v1.4h-3.9v11.8h-1.6v-22.4h1.6v9.2Z"/>
    <path class="cls-6" d="M876.6,296.4h-20.4v-1.4h20.4v1.4ZM874.1,302.5c0,2.6-2.9,4-7.7,4s-7.7-1.4-7.7-4,2.9-4,7.7-4c4.8,0,7.7,1.5,7.7,4ZM874.2,292.6h-15.4v-7.5h15.2v1.4h-13.7v4.8h13.8v1.3ZM860.3,302.5c0,1.7,2.3,2.7,6.1,2.7s6.1-1,6.1-2.7-2.4-2.7-6.1-2.7c-3.8,0-6.1,1-6.1,2.7Z"/>
  </g>
  <g>
    <path class="cls-6" d="M823.7,557.7l-2.6,3.5c-3.3-1.6-5.6-4.7-6.9-8.5-1.3,4-3.8,7.3-7.3,9.1l-2.7-3.5c5.3-2.4,7.8-8.4,7.8-14.2v-4.6h4.4v4.6c0,5.6,2.4,11.2,7.3,13.6ZM829.5,549h4.6v3.7h-4.6v15.4h-4.4v-31.1h4.4v12Z"/>
    <path class="cls-6" d="M851.9,543.9h5.2v-6.9h4.3v16.7h-4.3v-6.3h-5.2c-.8,3.4-4,5.7-8,5.7s-8.3-3.1-8.3-7.5c0-4.3,3.5-7.4,8.3-7.3,4,0,7.1,2.2,8,5.6ZM839.7,545.7c0,2.3,1.7,3.8,4.1,3.8s4.1-1.5,4.1-3.8-1.7-3.8-4.1-3.7c-2.4,0-4.2,1.4-4.1,3.7ZM845,558.1h12.1v-3h4.3v12.7h-20.7v-12.7h4.3v3ZM857.1,564.3v-2.8h-12.1v2.8h12.1Z"/>
    <path class="cls-6" d="M867.6,562.7l-2.5-3.3c7.4-3.7,11.3-8.6,12.1-15.6h-10.4v-3.6h14.8c0,9.3-3.7,17.4-14.1,22.5ZM890,549h4.4v3.6h-4.4v15.5h-4.4v-31h4.4v11.9Z"/>
    <path class="cls-6" d="M806.3,606.6l-.9-1.3c6.1-2.9,9.4-7.5,9.9-12.9h-8.9v-1.3h10.5c0,6.3-3.2,12-10.6,15.6ZM823.4,611h-1.6v-22.4h1.6v22.4Z"/>
    <path class="cls-6" d="M839.3,594.1h5v-5.5h1.6v12h-1.6v-5.2h-5c-.3,2.7-2.6,4.5-5.7,4.5s-5.8-2.1-5.8-5.1c0-3,2.4-5.1,5.8-5.1s5.3,1.8,5.7,4.4ZM829.4,594.8c0,2.2,1.8,3.8,4.2,3.8s4.2-1.6,4.2-3.8-1.8-3.8-4.2-3.8-4.2,1.6-4.2,3.8ZM833.3,604.8h11v-3.1h1.6v8.9h-14.2v-8.9h1.6v3.1ZM844.3,609.3v-3.2h-11v3.2h11Z"/>
    <path class="cls-6" d="M862.1,595.6c0,3.2-2.5,5.5-5.8,5.5-3.3,0-5.8-2.2-5.8-5.5,0-3.2,2.5-5.4,5.8-5.4s5.8,2.2,5.8,5.4ZM852.1,595.6c0,2.3,1.8,4,4.2,4s4.2-1.7,4.2-4-1.8-4-4.2-4-4.2,1.7-4.2,4ZM869.1,610.4h-15v-7.1h1.6v5.7h13.4v1.3ZM868.4,605.1h-1.6v-16.5h1.6v16.5Z"/>
    <path class="cls-6" d="M873.8,614h-1.5l1.4-6.6h1.9l-1.9,6.6Z"/>
    <path class="cls-6" d="M819.8,641h-1.5v-8.4h-3.5v4.7h-8.7v-10.9h1.5v3.9h5.6v-3.9h1.5v4.8h3.5v-6.1h1.5v15.9ZM813.2,635.9v-4.3h-5.6v4.3h5.6ZM824.7,646.4h-15.3v-7.2h1.6v5.8h13.7v1.3ZM824,641.6h-1.5v-17h1.5v17Z"/>
    <path class="cls-6" d="M841,640.9l-.9,1.3c-2.6-1.2-4.8-3.7-5.8-6.9-1,3.3-3.2,6-5.7,7.2l-.9-1.2c3.2-1.5,5.9-5.4,5.9-9.4v-2.1h-5.3v-1.3h5.3v-3.6h1.6v3.6h5.2v1.3h-5.3v2.1c0,3.9,2.8,7.5,6,9ZM845.9,647h-1.6v-12h-5.2v-1.3h5.2v-9.1h1.6v22.4Z"/>
    <path class="cls-6" d="M863.2,640.4l-1,1.3c-2.5-1.3-4.7-4.1-5.7-7.3-1,3.4-3.3,6.4-5.8,7.7l-1-1.3c3.1-1.6,6-5.9,6-10v-4.3h1.6v4.3c0,3.9,2.9,8,5.9,9.5ZM867.2,633.8h3.9v1.4h-3.9v11.8h-1.6v-22.4h1.6v9.2Z"/>
    <path class="cls-6" d="M884.3,630.1h5v-5.5h1.6v12h-1.6v-5.2h-5c-.3,2.7-2.6,4.5-5.7,4.5s-5.8-2.1-5.8-5.1c0-3,2.4-5.1,5.8-5.1s5.3,1.8,5.7,4.4ZM874.3,630.8c0,2.2,1.8,3.8,4.2,3.8s4.2-1.6,4.2-3.8-1.8-3.8-4.2-3.8-4.2,1.6-4.2,3.8ZM878.2,640.8h11v-3.1h1.6v8.9h-14.2v-8.9h1.6v3.1ZM889.3,645.3v-3.2h-11v3.2h11Z"/>
    <path class="cls-6" d="M896,642.6l-.9-1.3c6-2.9,9.2-7.5,9.6-12.9h-8.6v-1.3h10.3c0,6.2-3.1,12-10.4,15.6ZM912.1,633.9h3.8v1.4h-3.8v11.8h-1.6v-22.4h1.6v9.3Z"/>
    <path class="cls-6" d="M918.8,650h-1.5l1.4-6.6h1.9l-1.9,6.6Z"/>
    <path class="cls-6" d="M806.2,678.6l-.9-1.3c6-2.9,9.2-7.5,9.6-12.9h-8.6v-1.3h10.3c0,6.2-3.1,12-10.4,15.6ZM822.3,669.9h3.8v1.4h-3.8v11.8h-1.6v-22.4h1.6v9.3Z"/>
    <path class="cls-6" d="M839.3,666.1h5v-5.5h1.6v12h-1.6v-5.2h-5c-.3,2.7-2.6,4.5-5.7,4.5s-5.8-2.1-5.8-5.1c0-3,2.4-5.1,5.8-5.1s5.3,1.8,5.7,4.4ZM829.4,666.8c0,2.2,1.8,3.8,4.2,3.8s4.2-1.6,4.2-3.8-1.8-3.8-4.2-3.8-4.2,1.6-4.2,3.8ZM833.3,676.8h11v-3.1h1.6v8.9h-14.2v-8.9h1.6v3.1ZM844.3,681.3v-3.2h-11v3.2h11Z"/>
    <path class="cls-6" d="M876.6,672.7h-20.4v-1.3h20.4v1.3ZM875.4,668.1l-.6,1.3c-3.3-.5-6.9-2.4-8.3-5.1-1.4,2.7-5.1,4.5-8.4,5.1l-.6-1.3c3.6-.5,8.2-2.9,8.2-6v-1.1h1.6v1.1c0,3,4.6,5.6,8.1,6ZM874.1,679c0,2.5-2.9,4-7.7,4-4.8,0-7.7-1.4-7.7-4s2.9-3.9,7.7-3.9c4.8,0,7.7,1.4,7.7,3.9ZM860.3,679c0,1.7,2.3,2.7,6.1,2.7s6.1-1,6.1-2.7-2.4-2.6-6.1-2.7c-3.8,0-6.1,1-6.1,2.7Z"/>
    <path class="cls-6" d="M893.3,681.8h-1.5v-7.9h-4.5v-1.3h4.5v-4.3h-4.1c-1.1,3.8-3.6,7.3-7.9,9.8l-1-1.2c5-3,7.6-7.3,7.9-12.1h-7.1v-1.4h8.6c0,1.2-.1,2.3-.3,3.4h3.8v-5.7h1.5v20.6ZM897.8,683h-1.5v-22.4h1.5v22.4Z"/>
    <path class="cls-6" d="M914.4,676.8l-.9,1.3c-2.5-1.3-4.8-4-5.8-7.1-1,3.4-3.5,6.4-5.9,7.7l-1-1.3c3-1.5,6.1-5.8,6.1-9.6v-3.4h-5.3v-1.4h12.1v1.4h-5.2v3.4c0,3.6,2.8,7.6,5.9,9.1ZM918.4,669.8h3.9v1.4h-3.9v11.8h-1.6v-22.4h1.6v9.2Z"/>
    <path class="cls-6" d="M950.3,672.7h-20.4v-1.4h20.4v1.4ZM947.8,678.9c0,2.6-2.9,4-7.7,4s-7.7-1.4-7.7-4,2.9-4,7.7-4c4.8,0,7.7,1.5,7.7,4ZM947.9,669h-15.4v-7.5h15.2v1.4h-13.7v4.8h13.8v1.3ZM934,678.9c0,1.7,2.3,2.7,6.1,2.7s6.1-1,6.1-2.7-2.4-2.7-6.1-2.7c-3.8,0-6.1,1-6.1,2.7Z"/>
  </g>
  <g>
    <path class="cls-6" d="M618.3,749.8c0,2.4,0,5.1-.7,8.7h4.1v3.5h-28.5v-3.5h20c.7-3.1.8-5.5.8-7.7h-17.3v-3.5h21.6v2.5ZM618.2,776.7h-21.6v-11.4h21.6v11.4ZM600.9,773.2h13v-4.5h-13v4.5Z"/>
    <path class="cls-6" d="M651.8,763.4h-6.3v3.8c1.9,1,2.9,2.4,2.9,4.2,0,3.7-4.1,5.7-10.8,5.7s-10.9-2.1-10.9-5.7,1.1-3.3,3.1-4.3v-3.6h-6.4v-3.5h28.4v3.5ZM648.9,752.4c0,3.7-4.4,5.9-11.3,5.9s-11.3-2.2-11.3-5.9,4.4-6,11.3-6,11.3,2.3,11.3,6ZM630.8,752.4c0,1.7,2.5,2.6,6.8,2.6s6.8-.9,6.8-2.6-2.5-2.7-6.8-2.7-6.8.9-6.8,2.7ZM631.1,771.3c0,1.6,2.2,2.4,6.5,2.4s6.4-.8,6.5-2.4c0-1.6-2.3-2.4-6.5-2.4-4.3,0-6.5.8-6.5,2.4ZM641.2,765.9v-2.5h-7v2.5c1.1-.1,2.2-.2,3.5-.2s2.5,0,3.6.2Z"/>
    <path class="cls-6" d="M674.2,775.6h-4.1v-10.3h-4.4v-3.5h4.4v-4.2h-3.8c-1.5,5.1-4.6,9.5-10.4,12.9l-2.6-3.1c6.3-3.7,9.1-8.3,9.7-14.4h-7.9v-3.5h12.2c0,1.6-.1,3.1-.3,4.5h3.1v-7.5h4.1v29.1ZM680.7,777h-4.1v-31.1h4.1v31.1Z"/>
    <path class="cls-6" d="M600,813.9v-2.6c-2.8-.2-4.6-1.8-4.5-4.1,0-2.5,2.1-4.1,5.3-4.1s5.4,1.6,5.4,4.1-1.8,3.8-4.5,4.1v2.6c2.3,0,4.6-.3,6.7-.5l.2,1.2c-5.1.8-10.6.9-14.8.9l-.3-1.4c2,0,4.3,0,6.6-.1ZM607.7,801.6h-13.8v-1.3h6.1v-2.9h1.6v2.9h6.1v1.3ZM597,807.2c0,1.7,1.5,2.8,3.8,2.8,2.3,0,3.8-1.1,3.8-2.8s-1.5-2.9-3.8-2.9-3.8,1.2-3.8,2.9ZM611.5,819.8h-1.6v-22.4h1.6v22.4Z"/>
    <path class="cls-6" d="M630.3,818.6h-1.5v-7.9h-4.5v-1.3h4.5v-4.3h-4.1c-1.1,3.8-3.6,7.3-7.9,9.8l-1-1.2c5-3,7.6-7.3,7.9-12.1h-7.1v-1.4h8.6c0,1.2-.1,2.3-.3,3.4h3.8v-5.7h1.5v20.6ZM634.8,819.8h-1.5v-22.4h1.5v22.4Z"/>
    <path class="cls-6" d="M651.4,813.3l-1,1.3c-2.5-1.3-4.7-4.1-5.7-7.3-1,3.4-3.3,6.4-5.8,7.7l-1-1.3c3.1-1.6,6-5.9,6-10v-4.3h1.6v4.3c0,3.9,2.9,8,5.9,9.5ZM655.5,806.7h3.9v1.4h-3.9v11.8h-1.6v-22.4h1.6v9.2Z"/>
    <path class="cls-6" d="M662.1,822.9h-1.5l1.4-6.6h1.9l-1.9,6.6Z"/>
    <path class="cls-6" d="M691.9,814h-1.6v-6.2h-5.7v2.3h-10v-11.2h1.6v4.2h6.8v-4.2h1.6v2.7h5.7v-4.2h1.6v16.6ZM683,808.8v-4.4h-6.8v4.4h6.8ZM692.4,819.3h-14.9v-6.9h1.6v5.5h13.3v1.3ZM690.3,806.5v-3.5h-5.7v3.5h5.7Z"/>
    <path class="cls-6" d="M710.4,812.2l.2,1.4c-4.2.7-7.7.8-11.5.8h-1.9v-8.4h8.7v-5.1h-8.7v-1.4h10.3v7.8h-8.7v5.7h.2c3.7,0,7.1-.2,11.3-.8ZM714.3,819.9h-1.6v-22.4h1.6v22.4Z"/>
    <path class="cls-6" d="M731.6,813.3l-1,1.3c-2.5-1.3-4.7-4.1-5.7-7.3-1,3.4-3.3,6.4-5.8,7.7l-1-1.3c3.1-1.6,6-5.9,6-10v-4.3h1.6v4.3c0,3.9,2.9,8,5.9,9.5ZM735.6,806.7h3.9v1.4h-3.9v11.8h-1.6v-22.4h1.6v9.2Z"/>
    <path class="cls-6" d="M742.3,822.9h-1.5l1.4-6.6h1.9l-1.9,6.6Z"/>
    <path class="cls-6" d="M754.3,810.3l-.7-1.3c5.7-1.6,9.2-4.7,9.6-8.8h-8.6v-1.3h10.3c0,5.5-4,9.6-10.6,11.4ZM771,819.5h-14.1v-8.2h14.1v8.2ZM758.6,818.2h10.9v-5.5h-10.9v5.5ZM771,803.1h3.5v1.3h-3.5v5.8h-1.6v-12.8h1.6v5.7Z"/>
    <path class="cls-6" d="M788.7,800.5h-2.4v7.6c1.1,0,2.2-.2,3.3-.3v1.2c-4.3.7-9.5.7-13.2.7l-.2-1.4h3v-7.8h-2.4v-1.3h11.9v1.3ZM794.6,815.8c0,2.5-2.8,4-7.4,4s-7.4-1.4-7.4-4c0-2.5,2.8-4,7.4-4s7.4,1.4,7.4,4ZM784.7,808.2v-7.7h-3.9v7.8c1.3,0,2.6,0,3.9-.1ZM781.3,815.8c0,1.7,2.2,2.7,5.8,2.7s5.9-1,5.9-2.7-2.3-2.7-5.9-2.7-5.9,1-5.8,2.7ZM794.5,811.3h-1.6v-4.4h-4.1v-1.3h4.1v-2.6h-4.1v-1.3h4.1v-4.1h1.6v13.9Z"/>
    <path class="cls-6" d="M811.8,813.3l-1,1.3c-2.5-1.3-4.7-4.1-5.7-7.3-1,3.4-3.3,6.4-5.8,7.7l-1-1.3c3.1-1.6,6-5.9,6-10v-4.3h1.6v4.3c0,3.9,2.9,8,5.9,9.5ZM815.8,806.7h3.9v1.4h-3.9v11.8h-1.6v-22.4h1.6v9.2Z"/>
    <path class="cls-6" d="M847.7,809.6h-20.4v-1.4h20.4v1.4ZM845.1,815.8c0,2.6-2.9,4-7.7,4s-7.7-1.4-7.7-4,2.9-4,7.7-4c4.8,0,7.7,1.5,7.7,4ZM845.3,805.9h-15.4v-7.5h15.2v1.4h-13.7v4.8h13.8v1.3ZM831.4,815.8c0,1.7,2.3,2.7,6.1,2.7s6.1-1,6.1-2.7-2.4-2.7-6.1-2.7c-3.8,0-6.1,1-6.1,2.7Z"/>
  </g>
  <g>
    <path class="cls-6" d="M187.3,773.2h-28.4v-3.6h6v-9.8h4.3v9.8h3.4v-9.8h4.3v9.8h10.3v3.6ZM184.8,751.6c0,3.8,0,8.1-1.2,14.3l-4.3-.4c1-5.7,1.1-9.9,1.1-13.5h-18.6v-3.5h23v3Z"/>
    <path class="cls-6" d="M217.6,763.9h-6.8v2.9h3.4v10.2h-4.3v-6.8h-17.4v-3.4h3.6v-2.9h-6.7v-3.5h28.4v3.5ZM214.7,752.6c0,3.8-4.5,6.2-11.3,6.2s-11.3-2.4-11.3-6.2,4.5-6.2,11.3-6.1c6.8,0,11.3,2.3,11.3,6.1ZM196.6,752.6c0,1.8,2.5,2.8,6.8,2.8s6.8-.9,6.8-2.8-2.5-2.7-6.8-2.7-6.8,1-6.8,2.7ZM206.4,766.8v-2.9h-6.1v2.9h6.1Z"/>
    <path class="cls-6" d="M239.9,775.6h-4.1v-10.3h-4.4v-3.5h4.4v-4.2h-3.8c-1.5,5.1-4.6,9.5-10.4,12.9l-2.6-3.1c6.3-3.7,9.1-8.3,9.7-14.4h-7.9v-3.5h12.2c0,1.6-.1,3.1-.3,4.5h3.1v-7.5h4.1v29.1ZM246.4,777h-4.1v-31.1h4.1v31.1Z"/>
    <path class="cls-6" d="M274.5,760.9h-15.2v-13.1h15.2v13.1ZM284.3,768.5h-8.7c.5,2.1,3.8,4.6,9.9,5.2l-1.5,3.3c-5.2-.5-8.9-2.4-10.7-4.8-1.9,2.5-5.6,4.3-10.8,4.8l-1.5-3.3c6.2-.5,9.5-3,10-5.2h-8.7v-3.2h8.9v-2.6h4.4v2.6h8.9v3.2ZM263.6,757.5h6.6v-6.3h-6.6v6.3ZM283.8,763.5h-4.3v-17.6h4.3v17.6Z"/>
    <path class="cls-6" d="M298.5,771.7l-2.3-3.5c8-3.8,11.6-8.7,12.3-15.6h-10.6v-3.4h15c0,9.4-3.3,17.3-14.4,22.5ZM322.2,777h-4.4v-31.1h4.4v31.1Z"/>
    <path class="cls-6" d="M342.3,752h-10.3v5.1h9.9v3.4h-9.9v5.9c4.5,0,8.1-.2,12.2-.9l.4,3.5c-4.8.7-9,.9-14.4.9h-2.6v-21.5h14.7v3.6ZM350.9,757.7h4.6v3.7h-4.6v15.7h-4.4v-31.1h4.4v11.8Z"/>
    <path class="cls-6" d="M91.8,816.5h-20.4v-1.4h8.2v-8.1h1.6v8.1h10.6v1.4ZM89.2,802.1c0,2.7,0,5.8-.8,10.2l-1.6-.2c.8-4.2.8-7.3.8-10v-.9h-14v-1.3h15.6v2.3Z"/>
    <path class="cls-6" d="M108.9,808.9v1.2c-2.1.4-4.4.6-6.7.8v8.2h-1.6v-8.2c-2.4.1-4.6.1-6.6.2l-.2-1.4c4.3,0,10.1,0,15.1-.8ZM107,803.1c0,2.7-2.4,4.6-5.7,4.5-3.3,0-5.7-1.8-5.7-4.5,0-2.7,2.3-4.5,5.7-4.5s5.7,1.8,5.7,4.5ZM97.2,803.1c0,1.9,1.7,3.2,4.1,3.2s4.2-1.3,4.2-3.2-1.8-3.2-4.2-3.2c-2.4,0-4.1,1.3-4.1,3.2ZM112.3,819.9h-1.6v-22.4h1.6v22.4Z"/>
    <path class="cls-6" d="M143.1,809.4h-20.4v-1.3h8.7v-4.5h1.6v4.5h10.1v1.3ZM140.6,815.7c0,2.5-3.1,4-7.8,4s-7.8-1.5-7.8-4,3-4.1,7.8-4.1,7.8,1.5,7.8,4.1ZM140.4,800.5c0,1.8,0,3.6-.6,5.9l-1.6-.2c.6-2.3.6-4,.6-5.7v-.6h-13.7v-1.3h15.3v1.9ZM126.6,815.7c0,1.7,2.5,2.7,6.2,2.7s6.2-1.1,6.2-2.7-2.5-2.8-6.2-2.8-6.2,1.1-6.2,2.8Z"/>
    <path class="cls-6" d="M165.6,812h-9.5v7.8h-1.5v-7.8h-9.4v-1.3h20.5v1.3ZM162.9,807.3h-15.1v-8.6h15.1v8.6ZM149.4,806.1h11.9v-6h-11.9v6Z"/>
    <path class="cls-6" d="M182.1,807.3v1.2c-1.9.3-4.1.5-6.3.7v4.5h-1.6v-4.4c-2.3,0-4.6.1-6.5.1l-.2-1.4c4.2,0,9.8,0,14.6-.7ZM180.4,802.3c0,2.4-2.2,3.9-5.5,3.9-3.3,0-5.5-1.5-5.5-3.9s2.2-3.9,5.5-3.9,5.5,1.5,5.5,3.9ZM186.5,819.3h-15.7v-6.5h1.6v5.2h14.1v1.3ZM170.8,802.3c0,1.6,1.6,2.6,4,2.6s4-1,4-2.6-1.7-2.6-4-2.6c-2.4,0-4,1.1-4,2.6ZM185.9,814.5h-1.6v-2.5h-4.7v-1.2h4.7v-13.3h1.6v17.1Z"/>
    <path class="cls-6" d="M191.5,822.9h-1.5l1.4-6.6h1.9l-1.9,6.6Z"/>
    <path class="cls-6" d="M223.2,816.5h-20.4v-1.4h5.3v-7.5h1.6v7.5h4v-7.5h1.6v7.5h7.9v1.4ZM220.6,802.4c0,2.9,0,5.7-.8,9.8l-1.6-.2c.8-3.9.8-6.8.8-9.6v-1.2h-14.1v-1.3h15.6v2.6Z"/>
    <path class="cls-6" d="M245.7,811.6h-9.5v8.3h-1.5v-8.3h-9.4v-1.4h20.4v1.4ZM244.6,806.2l-.7,1.3c-3.3-.6-7-2.6-8.4-5.4-1.4,2.9-5.1,4.8-8.4,5.4l-.7-1.3c3.7-.6,8.3-3.1,8.3-6.6v-1.3h1.7v1.3c0,3.3,4.6,6,8.3,6.6Z"/>
    <path class="cls-6" d="M249.2,822.9h-1.5l1.4-6.6h1.9l-1.9,6.6Z"/>
    <path class="cls-6" d="M279,814.1h-1.6v-6.3h-6c-1,1.4-2.7,2.2-4.7,2.2-3.4,0-5.8-2.3-5.8-5.5,0-3.2,2.4-5.5,5.8-5.6,2,0,3.6.9,4.6,2.2h6.1v-3.7h1.6v16.6ZM262.4,804.5c0,2.4,1.8,4.1,4.2,4.1s4.2-1.8,4.2-4.1-1.8-4.1-4.2-4.1c-2.5,0-4.2,1.8-4.2,4.1ZM279.6,819.3h-14.9v-7h1.6v5.7h13.3v1.3ZM272.4,804.5c0,.7-.1,1.4-.3,2h5.3v-4h-5.3c.2.6.4,1.3.4,2Z"/>
    <path class="cls-6" d="M300.6,800.9c0,2.1,0,4.4-.7,7.7h3.5v1.4h-9.4v9.9h-1.6v-9.9h-9.4v-1.4h15.3c.7-3.2.7-5.6.7-7.7v-.6h-13.4v-1.3h15v2Z"/>
    <path class="cls-6" d="M319.9,807.3v1.2c-1.9.3-4.1.5-6.3.7v4.5h-1.6v-4.4c-2.3,0-4.6.1-6.5.1l-.2-1.4c4.2,0,9.8,0,14.6-.7ZM318.2,802.3c0,2.4-2.2,3.9-5.5,3.9-3.3,0-5.5-1.5-5.5-3.9s2.2-3.9,5.5-3.9,5.5,1.5,5.5,3.9ZM324.3,819.3h-15.7v-6.5h1.6v5.2h14.1v1.3ZM308.7,802.3c0,1.6,1.6,2.6,4,2.6s4-1,4-2.6-1.7-2.6-4-2.6c-2.4,0-4,1.1-4,2.6ZM323.7,814.5h-1.6v-2.5h-4.7v-1.2h4.7v-13.3h1.6v17.1Z"/>
    <path class="cls-6" d="M354.6,809.6h-20.4v-1.4h20.4v1.4ZM352.1,815.8c0,2.6-2.9,4-7.7,4s-7.7-1.4-7.7-4,2.9-4,7.7-4c4.8,0,7.7,1.5,7.7,4ZM352.2,805.9h-15.4v-7.5h15.2v1.4h-13.7v4.8h13.8v1.3ZM338.3,815.8c0,1.7,2.3,2.7,6.1,2.7s6.1-1,6.1-2.7-2.4-2.7-6.1-2.7c-3.8,0-6.1,1-6.1,2.7Z"/>
  </g>
  <g>
    <path class="cls-6" d="M41.6,544.1c0,3.8-2.6,6.6-6.5,7.4v4.2c2.6-.1,5.3-.4,7.8-.7l.3,3.1c-6.9,1.3-14.3,1.4-19.7,1.4l-.5-3.5c2.3,0,5,0,7.8-.1v-4.4c-3.8-.8-6.5-3.6-6.5-7.4s3.7-7.6,8.6-7.6,8.6,3.1,8.6,7.6ZM28.7,544.1c0,2.4,1.8,3.9,4.3,3.9s4.3-1.5,4.4-3.9c0-2.5-1.9-3.9-4.4-3.9s-4.3,1.4-4.3,3.9ZM49,565.8h-4.3v-31.2h4.3v31.2Z"/>
    <path class="cls-6" d="M78.2,538.4c0,2.3,0,4.9-.6,8.3h4v3.5h-12.1v4.5h8.8v11.1h-4.4v-7.7h-17.9v-3.4h9.1v-4.5h-12v-3.5h20.1c.6-2.9.7-5.2.7-7.2h-17.3v-3.5h21.6v2.4Z"/>
    <path class="cls-6" d="M103.9,564.4h-4.1v-10.3h-4.4v-3.5h4.4v-4.2h-3.8c-1.5,5.1-4.6,9.5-10.4,12.9l-2.6-3.1c6.3-3.7,9.1-8.3,9.7-14.4h-7.9v-3.5h12.2c0,1.6-.1,3.1-.3,4.5h3.1v-7.5h4.1v29.1ZM110.4,565.7h-4.1v-31.1h4.1v31.1Z"/>
    <path class="cls-6" d="M138.5,549.6h-15.2v-13.1h15.2v13.1ZM148.3,557.2h-8.7c.5,2.1,3.8,4.6,9.9,5.2l-1.5,3.3c-5.2-.5-8.9-2.4-10.7-4.8-1.9,2.5-5.6,4.3-10.8,4.8l-1.5-3.3c6.2-.5,9.5-3,10-5.2h-8.7v-3.2h8.9v-2.6h4.4v2.6h8.9v3.2ZM127.6,546.2h6.6v-6.3h-6.6v6.3ZM147.7,552.3h-4.3v-17.6h4.3v17.6Z"/>
    <path class="cls-6" d="M86.3,578c0,2,0,4.5-.6,7.6h4v3.4h-28.5v-3.4h20.1c.5-2.5.6-4.6.6-6.3h-17.3v-3.5h21.6v2.1ZM86.2,599.9h-17.4v2.2h18.2v3.3h-22.6v-8.8h17.4v-2.1h-17.4v-3.4h21.7v8.7Z"/>
    <path class="cls-6" d="M119.9,602.3h-28.5v-3.6h12v-4.7h-8.7v-10.5h17.6v-3.4h-17.6v-3.5h21.9v10.3h-17.5v3.5h18.3v3.6h-9.6v4.7h12.1v3.6Z"/>
    <path class="cls-6" d="M147.9,590.5h-4.3v-6.1h-5.7v5.2h-14.8v-13.7h4.4v3.6h6.1v-3.6h4.3v5h5.7v-6.3h4.3v15.9ZM147.9,600h-16.3v1.9h17.2v3.4h-21.6v-8.5h16.3v-1.8h-16.4v-3.4h20.7v8.4ZM133.5,586.2v-3.3h-6.1v3.3h6.1Z"/>
    <path class="cls-6" d="M46.7,632.8c0,2.9-2.1,4.8-5.2,5.1v4.1c2.3-.1,4.7-.3,7-.6v1.2c-5.1.9-10.6,1-14.7,1l-.3-1.4c1.9,0,4.1,0,6.4,0v-4.2c-3.1-.3-5.2-2.2-5.2-5.1s2.5-5.2,6-5.2,6,2.1,6,5.2ZM36.3,632.8c0,2.2,1.9,3.8,4.4,3.8,2.6,0,4.4-1.6,4.4-3.8s-1.9-3.8-4.4-3.8-4.4,1.5-4.4,3.8ZM51.6,648.6h-1.6v-22.4h1.6v22.4Z"/>
    <path class="cls-6" d="M73.6,628.9c0,1.7,0,3.7-.6,6.5h3.4v1.3h-9.5v4.4h6.9v7.4h-1.6v-6.1h-14.2v-1.3h7.3v-4.4h-9.4v-1.3h15.6c.6-2.8.6-4.8.6-6.5v-.3h-13.5v-1.3h15.1v1.6Z"/>
    <path class="cls-6" d="M92.9,647.4h-1.5v-7.9h-4.5v-1.3h4.5v-4.3h-4.1c-1.1,3.8-3.6,7.3-7.9,9.8l-1-1.2c5-3,7.6-7.3,7.9-12.1h-7.1v-1.4h8.6c0,1.2-.1,2.3-.3,3.4h3.8v-5.7h1.5v20.6ZM97.4,648.6h-1.5v-22.4h1.5v22.4Z"/>
    <path class="cls-6" d="M108.3,644.2l-.9-1.3c6.1-2.9,9.4-7.5,9.9-12.9h-8.9v-1.3h10.5c0,6.3-3.2,12-10.6,15.6ZM125.5,648.6h-1.6v-22.4h1.6v22.4Z"/>
    <path class="cls-6" d="M141.4,631.6h5v-5.5h1.6v12h-1.6v-5.2h-5c-.3,2.7-2.6,4.5-5.7,4.5s-5.8-2.1-5.8-5.1c0-3,2.4-5.1,5.8-5.1s5.3,1.8,5.7,4.4ZM131.5,632.4c0,2.2,1.8,3.8,4.2,3.8s4.2-1.6,4.2-3.8-1.8-3.8-4.2-3.8-4.2,1.6-4.2,3.8ZM135.4,642.4h11v-3.1h1.6v8.9h-14.2v-8.9h1.6v3.1ZM146.4,646.9v-3.2h-11v3.2h11Z"/>
    <path class="cls-6" d="M66.9,673.4h9.4v1.4h-20.4v-1.4h9.4v-3.4h1.6v3.4ZM75.1,669.9l-.6,1.3c-3.5-.5-7.2-2.1-8.4-4.7-1.2,2.6-4.9,4.2-8.4,4.7l-.6-1.3c3.7-.4,8-2.4,8-5.2h0c0,0-7.3,0-7.3,0v-1.3h16.7v1.3h-7.4c0,2.9,4.3,4.9,8,5.3ZM73.7,680.7c0,2.5-2.9,3.8-7.7,3.8s-7.7-1.3-7.7-3.8,2.9-3.8,7.7-3.8,7.7,1.4,7.7,3.8ZM60,680.7c0,1.6,2.3,2.5,6.1,2.5,3.8,0,6.1-.9,6.1-2.5s-2.3-2.6-6.1-2.5c-3.8,0-6.1.9-6.1,2.5Z"/>
    <path class="cls-6" d="M91.6,678l-1,1.3c-2.5-1.3-4.7-4.1-5.7-7.3-1,3.4-3.3,6.4-5.8,7.7l-1-1.3c3.1-1.6,6-5.9,6-10v-4.3h1.6v4.3c0,3.9,2.9,8,5.9,9.5ZM95.6,671.4h3.9v1.4h-3.9v11.8h-1.6v-22.4h1.6v9.2Z"/>
    <path class="cls-6" d="M114.1,678.4l-.9,1.3c-2.5-1.3-4.8-4-5.8-7.1-1,3.4-3.5,6.4-5.9,7.7l-1-1.3c3-1.5,6.1-5.8,6.1-9.6v-3.4h-5.3v-1.4h12.1v1.4h-5.2v3.4c0,3.6,2.8,7.6,5.9,9.1ZM118,671.4h3.9v1.4h-3.9v11.8h-1.6v-22.4h1.6v9.2Z"/>
    <path class="cls-6" d="M150,674.3h-20.4v-1.4h20.4v1.4ZM147.4,680.5c0,2.6-2.9,4-7.7,4s-7.7-1.4-7.7-4,2.9-4,7.7-4c4.8,0,7.7,1.5,7.7,4ZM147.5,670.6h-15.4v-7.5h15.2v1.4h-13.7v4.8h13.8v1.3ZM133.7,680.5c0,1.7,2.3,2.7,6.1,2.7s6.1-1,6.1-2.7-2.4-2.7-6.1-2.7c-3.8,0-6.1,1-6.1,2.7Z"/>
  </g>
  <g>
    <path class="cls-6" d="M78.6,199.2h-7.2v13.3c3,0,5.7-.2,8.7-.7l.3,3.6c-3.8.7-7.1.8-11.2.9h-2.2v-20.5h11.6v3.5ZM93,223.2h-4.1v-15.6h-3v14.1h-4v-29.1h4v11.5h3v-12h4.1v31.1Z"/>
    <path class="cls-6" d="M98.8,217.9l-2.3-3.5c8-3.8,11.6-8.7,12.3-15.6h-10.6v-3.4h15c0,9.4-3.3,17.3-14.4,22.5ZM122.5,223.2h-4.4v-31.1h4.4v31.1Z"/>
    <path class="cls-6" d="M143.3,199h5.2v-6.9h4.3v16.7h-4.3v-6.3h-5.2c-.8,3.4-4,5.7-8,5.7s-8.3-3.1-8.3-7.5c0-4.3,3.5-7.4,8.3-7.3,4,0,7.1,2.2,8,5.6ZM131.2,200.8c0,2.3,1.7,3.8,4.1,3.8s4.1-1.5,4.1-3.8-1.7-3.8-4.1-3.7c-2.4,0-4.2,1.4-4.1,3.7ZM136.4,213.2h12.1v-3h4.3v12.7h-20.7v-12.7h4.3v3ZM148.5,219.3v-2.8h-12.1v2.8h12.1Z"/>
    <path class="cls-6" d="M99.8,264h-1.8v-16.5h-.1l-4.3,2.9v-1.9l4.4-2.9h1.9v18.4Z"/>
    <path class="cls-6" d="M104.5,254.9c0-5.9,2.3-9.4,6.2-9.4s6.2,3.5,6.2,9.4-2.3,9.4-6.2,9.4-6.2-3.5-6.2-9.4ZM115.2,254.9c0-5-1.7-7.8-4.4-7.8s-4.4,2.9-4.4,7.8,1.7,7.8,4.4,7.8,4.4-2.8,4.4-7.8Z"/>
    <path class="cls-6" d="M119.7,254.9c0-5.9,2.3-9.4,6.2-9.4s6.2,3.5,6.2,9.4-2.3,9.4-6.2,9.4-6.2-3.5-6.2-9.4ZM130.3,254.9c0-5-1.7-7.8-4.4-7.8s-4.4,2.9-4.4,7.8,1.7,7.8,4.4,7.8,4.4-2.8,4.4-7.8Z"/>
    <path class="cls-6" d="M143.7,247.7h-6.8v11.2c3.4,0,5.6-.1,8.2-.7l.2,1.4c-2.7.6-4.9.7-8.5.7h-1.4v-13.9h8.4v1.3ZM153.5,266h-1.5v-11.9h-3.6v10.7h-1.5v-20.7h1.5v8.6h3.6v-9.1h1.5v22.4Z"/>
    <path class="cls-6" d="M18.6,283.7h-6.8v11.2c3.4,0,5.6-.1,8.2-.7l.2,1.4c-2.7.6-4.9.7-8.5.7h-1.4v-13.9h8.4v1.3ZM28.4,302h-1.5v-11.9h-3.6v10.7h-1.5v-20.7h1.5v8.6h3.6v-9.1h1.5v22.4Z"/>
    <path class="cls-6" d="M33.1,297.7l-.9-1.3c6.1-2.9,9.4-7.5,9.9-12.9h-8.9v-1.3h10.5c0,6.3-3.2,12-10.6,15.6ZM50.2,302h-1.6v-22.4h1.6v22.4Z"/>
    <path class="cls-6" d="M66.1,285.1h5v-5.5h1.6v12h-1.6v-5.2h-5c-.3,2.7-2.6,4.5-5.7,4.5s-5.8-2.1-5.8-5.1c0-3,2.4-5.1,5.8-5.1s5.3,1.8,5.7,4.4ZM56.2,285.8c0,2.2,1.8,3.8,4.2,3.8s4.2-1.6,4.2-3.8-1.8-3.8-4.2-3.8-4.2,1.6-4.2,3.8ZM60.1,295.9h11v-3.1h1.6v8.9h-14.2v-8.9h1.6v3.1ZM71.2,300.4v-3.2h-11v3.2h11Z"/>
    <path class="cls-6" d="M94,290.9h9.4v1.4h-20.4v-1.4h9.4v-3.4h1.6v3.4ZM102.2,287.3l-.6,1.3c-3.5-.5-7.2-2.1-8.4-4.7-1.2,2.6-4.9,4.2-8.4,4.7l-.6-1.3c3.7-.4,8-2.4,8-5.2h0c0,0-7.3,0-7.3,0v-1.3h16.7v1.3h-7.4c0,2.9,4.3,4.9,8,5.3ZM100.9,298.1c0,2.5-2.9,3.8-7.7,3.8s-7.7-1.3-7.7-3.8,2.9-3.8,7.7-3.8,7.7,1.4,7.7,3.8ZM87.2,298.1c0,1.6,2.3,2.5,6.1,2.5,3.8,0,6.1-.9,6.1-2.5s-2.3-2.6-6.1-2.5c-3.8,0-6.1.9-6.1,2.5Z"/>
    <path class="cls-6" d="M118.7,295.5l-1,1.3c-2.5-1.3-4.7-4.1-5.7-7.3-1,3.4-3.3,6.4-5.8,7.7l-1-1.3c3.1-1.6,6-5.9,6-10v-4.3h1.6v4.3c0,3.9,2.9,8,5.9,9.5ZM122.8,288.9h3.9v1.4h-3.9v11.8h-1.6v-22.4h1.6v9.2Z"/>
    <path class="cls-6" d="M141.3,295.9l-.9,1.3c-2.5-1.3-4.8-4-5.8-7.1-1,3.4-3.5,6.4-5.9,7.7l-1-1.3c3-1.5,6.1-5.8,6.1-9.6v-3.4h-5.3v-1.4h12.1v1.4h-5.2v3.4c0,3.6,2.8,7.6,5.9,9.1ZM145.2,288.9h3.9v1.4h-3.9v11.8h-1.6v-22.4h1.6v9.2Z"/>
    <path class="cls-6" d="M151.9,305.1h-1.5l1.4-6.6h1.9l-1.9,6.6Z"/>
    <path class="cls-6" d="M80,326.4l-.9,1.3c-2.5-1-4.6-2.9-5.5-5.4-.9,2.8-3.1,4.9-5.7,6l-.9-1.3c3.2-1.2,5.7-4.2,5.7-7.8v-2.4h1.5v2.5c0,3.1,2.6,6,5.7,7.1ZM84.7,334c0,2.5-2.7,4-7.3,4s-7.4-1.4-7.3-4c0-2.5,2.7-4,7.3-4s7.3,1.5,7.3,4ZM71.6,334c0,1.7,2.2,2.7,5.8,2.7,3.5,0,5.8-1,5.8-2.7s-2.2-2.7-5.8-2.7-5.8,1-5.8,2.7ZM84.5,321.7h3.5v1.4h-3.5v6.3h-1.6v-13.7h1.6v6Z"/>
    <path class="cls-6" d="M102.5,326.7l-.8,1.2c-2.6-.9-4.6-2.7-5.6-5.1-1,2.7-3.1,4.7-5.8,5.7l-.8-1.3c3.2-1.1,5.8-4,5.8-7.3v-1.3h-5.3v-1.3h12v1.3h-5.2v1.3c0,3,2.4,5.7,5.6,6.8ZM107.1,333.9c0,2.6-2.7,4.1-7.3,4.1s-7.4-1.5-7.3-4.1c0-2.5,2.8-4,7.3-4s7.3,1.5,7.3,4ZM94.1,333.9c0,1.7,2.2,2.8,5.8,2.8s5.8-1,5.8-2.8-2.2-2.7-5.8-2.7-5.8,1-5.8,2.7ZM107,321.5h3.5v1.3h-3.5v6.3h-1.6v-13.6h1.6v5.9Z"/>
    <path class="cls-6" d="M113.2,333.7l-.9-1.3c6.1-2.9,9.4-7.5,9.9-12.9h-8.9v-1.3h10.5c0,6.3-3.2,12-10.6,15.6ZM130.4,338h-1.6v-22.4h1.6v22.4Z"/>
    <path class="cls-6" d="M146.3,321.1h5v-5.5h1.6v12h-1.6v-5.2h-5c-.3,2.7-2.6,4.5-5.7,4.5s-5.8-2.1-5.8-5.1c0-3,2.4-5.1,5.8-5.1s5.3,1.8,5.7,4.4ZM136.4,321.8c0,2.2,1.8,3.8,4.2,3.8s4.2-1.6,4.2-3.8-1.8-3.8-4.2-3.8-4.2,1.6-4.2,3.8ZM140.3,331.9h11v-3.1h1.6v8.9h-14.2v-8.9h1.6v3.1ZM151.3,336.4v-3.2h-11v3.2h11Z"/>
    <path class="cls-6" d="M71.8,362.9h9.4v1.4h-20.4v-1.4h9.4v-3.4h1.6v3.4ZM80,359.3l-.6,1.3c-3.5-.5-7.2-2.1-8.4-4.7-1.2,2.6-4.9,4.2-8.4,4.7l-.6-1.3c3.7-.4,8-2.4,8-5.2h0c0,0-7.3,0-7.3,0v-1.3h16.7v1.3h-7.4c0,2.9,4.3,4.9,8,5.3ZM78.6,370.1c0,2.5-2.9,3.8-7.7,3.8s-7.7-1.3-7.7-3.8,2.9-3.8,7.7-3.8,7.7,1.4,7.7,3.8ZM64.9,370.1c0,1.6,2.3,2.5,6.1,2.5,3.8,0,6.1-.9,6.1-2.5s-2.3-2.6-6.1-2.5c-3.8,0-6.1.9-6.1,2.5Z"/>
    <path class="cls-6" d="M96.5,367.5l-1,1.3c-2.5-1.3-4.7-4.1-5.7-7.3-1,3.4-3.3,6.4-5.8,7.7l-1-1.3c3.1-1.6,6-5.9,6-10v-4.3h1.6v4.3c0,3.9,2.9,8,5.9,9.5ZM100.5,360.9h3.9v1.4h-3.9v11.8h-1.6v-22.4h1.6v9.2Z"/>
    <path class="cls-6" d="M119,367.9l-.9,1.3c-2.5-1.3-4.8-4-5.8-7.1-1,3.4-3.5,6.4-5.9,7.7l-1-1.3c3-1.5,6.1-5.8,6.1-9.6v-3.4h-5.3v-1.4h12.1v1.4h-5.2v3.4c0,3.6,2.8,7.6,5.9,9.1ZM123,360.9h3.9v1.4h-3.9v11.8h-1.6v-22.4h1.6v9.2Z"/>
    <path class="cls-6" d="M154.9,363.8h-20.4v-1.4h20.4v1.4ZM152.3,370c0,2.6-2.9,4-7.7,4s-7.7-1.4-7.7-4,2.9-4,7.7-4c4.8,0,7.7,1.5,7.7,4ZM152.5,360.1h-15.4v-7.5h15.2v1.4h-13.7v4.8h13.8v1.3ZM138.6,370c0,1.7,2.3,2.7,6.1,2.7s6.1-1,6.1-2.7-2.4-2.7-6.1-2.7c-3.8,0-6.1,1-6.1,2.7Z"/>
  </g>
  <circle class="cls-2" cx="658" cy="240.1" r="3.1"/>
  <circle class="cls-2" cx="419.5" cy="171" r="3.1"/>
  <circle class="cls-13" cx="270.9" cy="293.6" r="3.1"/>
  <circle class="cls-13" cx="271.1" cy="547.1" r="3.1"/>
  <circle class="cls-13" cx="394.7" cy="642.1" r="3.1"/>
  <circle class="cls-13" cx="553.8" cy="642.1" r="3.1"/>
  <circle class="cls-13" cx="680.7" cy="553.8" r="3.1"/>
  <rect class="cls-3" x="419.2" y="88.8" width=".6" height="79.1"/>
  <polygon class="cls-3" points="658.3 236.9 657.7 236.9 657.7 178.3 789.4 178.3 789.4 178.9 658.3 178.9 658.3 236.9"/>
  <rect class="cls-9" x="683.8" y="553.5" width="105.4" height=".6"/>
  <polygon class="cls-9" points="577.7 762 553.5 762 553.5 645.2 554.1 645.2 554.1 761.4 577.7 761.4 577.7 762"/>
  <polygon class="cls-9" points="395 761.8 369.7 761.8 369.7 761.2 394.4 761.2 394.4 645.2 395 645.2 395 761.8"/>
  <rect class="cls-3" x="164.3" y="546.8" width="103.6" height=".6"/>
  <polygon class="cls-3" points="271.2 290.5 270.6 290.5 270.6 205.6 163.9 205.6 163.9 205.1 271.2 205.1 271.2 290.5"/>
  <g>
    <path class="cls-5" d="M392,188.6h5.7v-3.3h2.4v4.3h5v-5.5h2.4v12.4h-2.4v-5h-5v4.2h-10.5v-10.5h2.4v3.3ZM397.7,193.8v-3.3h-5.7v3.3h5.7ZM395.1,200.2h10v-2.6h2.4v8.9h-14.8v-8.9h2.4v2.6ZM405.1,204.6v-2.5h-10v2.5h10Z"/>
    <path class="cls-5" d="M431.8,204h-20.8v-2h9.2v-5.4h2.4v5.4h9.2v2ZM430.9,195.5l-1,1.9c-3.7-.7-7.1-2.8-8.5-5.8-1.5,3-4.8,5.2-8.5,5.9l-1-1.9c4.2-.7,8.2-3.9,8.2-7.4v-.2h-7.4v-2h17.3v2h-7.4v.2c0,3.5,3.9,6.6,8.3,7.3Z"/>
    <path class="cls-5" d="M448.4,205.7h-2.3v-7.7h-3.9v-2h3.9v-3.7h-3.5c-1.1,3.8-3.5,7.1-7.8,9.7l-1.4-1.7c4.8-2.9,7.1-6.7,7.6-11.4h-6.4v-2h8.8c0,1.2,0,2.3-.3,3.4h3.1v-5.6h2.3v21ZM453,206.9h-2.3v-22.8h2.3v22.8Z"/>
  </g>
  <g>
    <path class="cls-5" d="M641.2,264.9l.2,1.8c-5.2,1-10.7,1-14.7,1l-.3-2c4.1,0,9.9,0,14.9-.8ZM639.8,256.8c0,3.2-2.6,5.4-6.2,5.4s-6.2-2.2-6.2-5.4c0-3.2,2.6-5.4,6.2-5.4,3.6,0,6.2,2.2,6.2,5.4ZM629.8,256.8c0,2,1.6,3.3,3.8,3.3s3.8-1.3,3.8-3.3-1.6-3.3-3.8-3.3-3.8,1.3-3.8,3.3ZM645,272.6h-2.4v-22.8h2.4v22.8Z"/>
    <path class="cls-5" d="M669.5,269.8h-20.8v-2h5.7v-4h-3.1v-7.2h13.4v-3.2h-13.4v-2h15.8v7.1h-13.4v3.3h13.9v2h-3.5v4h5.5v2ZM661.7,267.8v-4h-5v4h5Z"/>
    <path class="cls-5" d="M686,271.4h-2.3v-7.7h-3.9v-2h3.9v-3.7h-3.5c-1.1,3.8-3.5,7.1-7.8,9.7l-1.4-1.7c4.8-2.9,7.1-6.7,7.6-11.4h-6.4v-2h8.8c0,1.2,0,2.3-.3,3.4h3.1v-5.6h2.3v21ZM690.7,272.6h-2.3v-22.8h2.3v22.8Z"/>
  </g>
  <g>
    <path class="cls-13" d="M537.4,608.5c0,1.8,0,3.8-.6,6.6h3.2v2h-20.8v-2h15.2c.6-2.7.6-4.6.6-6.3h-13.2v-2h15.6v1.7ZM537.5,628.1h-15.7v-8.2h15.7v8.2ZM524.2,626.1h10.9v-4.3h-10.9v4.3Z"/>
    <path class="cls-13" d="M562.5,618.1h-5v3c1.6.7,2.5,1.8,2.5,3.2,0,2.6-2.9,4.1-7.8,4.1-5,0-7.9-1.5-7.9-4.1s.9-2.6,2.6-3.3v-2.9h-5.1v-2h20.7v2ZM560.2,610.3c0,2.7-3.1,4.2-8.1,4.2s-8.1-1.6-8.1-4.2,3.1-4.3,8.1-4.3,8.1,1.6,8.1,4.3ZM546.5,610.3c0,1.5,2.1,2.4,5.6,2.4s5.6-.9,5.6-2.4-2.2-2.4-5.6-2.4-5.7.9-5.6,2.4ZM546.6,624.3c0,1.4,2,2.2,5.5,2.2,3.4,0,5.4-.8,5.4-2.2s-2-2.2-5.4-2.2-5.5.8-5.5,2.2ZM555.1,620.4v-2.3h-5.9v2.3c.9-.1,1.8-.2,2.9-.2s2.1,0,3,.2Z"/>
    <path class="cls-13" d="M579.1,627.2h-2.3v-7.7h-3.9v-2h3.9v-3.7h-3.5c-1.1,3.8-3.5,7.1-7.8,9.7l-1.4-1.7c4.8-2.9,7.1-6.7,7.6-11.4h-6.4v-2h8.8c0,1.2,0,2.3-.3,3.4h3.1v-5.6h2.3v21ZM583.8,628.3h-2.3v-22.8h2.3v22.8Z"/>
  </g>
  <g>
    <path class="cls-13" d="M657.3,533.8l-1.5,1.9c-2.5-1.3-4.4-3.8-5.4-6.9-1,3.2-3,6-5.6,7.3l-1.5-2c3.5-1.7,5.9-6,5.9-10.2v-3.9h2.4v3.9c0,4,2.3,8.2,5.7,9.8ZM661.4,527.3h3.7v2.1h-3.7v11.6h-2.4v-22.8h2.4v9.1Z"/>
    <path class="cls-13" d="M678.3,523.5h4.4v-5.3h2.4v12.2h-2.4v-4.9h-4.4c-.5,2.6-2.8,4.4-5.8,4.4s-6-2.2-6-5.3,2.5-5.3,6-5.3c3,0,5.3,1.7,5.8,4.3ZM668.8,524.5c0,2,1.5,3.3,3.7,3.3s3.6-1.3,3.6-3.3-1.5-3.3-3.6-3.3-3.7,1.3-3.7,3.3ZM672.7,534.1h10v-2.6h2.4v9.2h-14.8v-9.2h2.4v2.6ZM682.7,538.7v-2.6h-10v2.6h10Z"/>
    <path class="cls-13" d="M690,536.7l-1.3-1.9c5.7-2.8,8.8-7,9.3-12.3h-8.2v-2h10.6c0,6.6-2.9,12.4-10.4,16.1ZM706.4,527.3h3.5v2h-3.5v11.7h-2.4v-22.7h2.4v9.1Z"/>
  </g>
  <g>
    <path class="cls-13" d="M342.4,623.3h-20.7v-2h4.9v-7.4h2.4v7.4h3.3v-7.4h2.4v7.4h7.8v2ZM340.2,608.3c0,2.9,0,5.9-.8,10.2l-2.4-.3c.8-4.1.8-7.2.8-10v-.5h-13.9v-2h16.4v2.4Z"/>
    <path class="cls-13" d="M364.9,616.5h-5.4v2.6h2.8v7.3h-2.4v-5.4h-13.5v-1.9h3v-2.6h-5.3v-2h20.7v2ZM362.6,608.6c0,2.7-3.1,4.4-8.1,4.4-5,0-8.1-1.7-8.1-4.4s3.1-4.4,8.1-4.4c5,0,8.1,1.7,8.1,4.4ZM348.9,608.6c0,1.6,2.1,2.5,5.6,2.5s5.6-.9,5.6-2.5-2.2-2.5-5.6-2.5c-3.5,0-5.7.9-5.6,2.5ZM357.2,619.1v-2.6h-5.3v2.6h5.3Z"/>
    <path class="cls-13" d="M381.5,625.3h-2.3v-7.7h-3.9v-2h3.9v-3.7h-3.5c-1.1,3.8-3.5,7.1-7.8,9.7l-1.4-1.7c4.8-2.9,7.1-6.7,7.6-11.4h-6.4v-2h8.8c0,1.2,0,2.3-.3,3.4h3.1v-5.6h2.3v21ZM386.2,626.4h-2.3v-22.8h2.3v22.8Z"/>
    <path class="cls-13" d="M407.4,614.5h-10.8v-9.3h10.8v9.3ZM414.8,620h-6.7c.2,2,3.3,4,7.5,4.5l-.8,1.9c-3.6-.4-6.5-2-7.9-4-1.4,2-4.4,3.5-8,4l-.8-1.9c4.1-.4,7.4-2.5,7.5-4.5h-6.6v-1.8h6.7v-2.1h2.4v2.1h6.7v1.8ZM399,612.6h6.1v-5.5h-6.1v5.5ZM414.3,616.7h-2.4v-13h2.4v13Z"/>
    <path class="cls-13" d="M425.7,622.3l-1.3-2c6.1-2.9,9-7,9.5-12.3h-8.4v-1.9h10.8c0,6.7-2.8,12.4-10.6,16.2ZM443.2,626.4h-2.4v-22.8h2.4v22.8Z"/>
    <path class="cls-13" d="M458.4,607.6h-8.3v4.4h7.8v1.9h-7.8v5.1c3.8,0,6.6-.2,9.9-.7l.2,2c-3.5.6-6.6.7-10.7.7h-1.8v-15.4h10.7v2ZM464.4,612.6h3.7v2h-3.7v11.8h-2.4v-22.8h2.4v9Z"/>
  </g>
  <g>
    <path class="cls-13" d="M238.6,487.2c0,2.8-2,4.9-5,5.3v3.6c2.1-.1,4.3-.3,6.4-.6l.2,1.8c-5.2,1-10.7,1-14.7,1l-.3-2c1.8,0,3.9,0,6.1,0v-3.7c-2.9-.4-5-2.5-5-5.3,0-3.2,2.6-5.4,6.2-5.4s6.2,2.2,6.2,5.4ZM228.6,487.2c0,2,1.6,3.4,3.8,3.3,2.2,0,3.8-1.3,3.8-3.3s-1.6-3.3-3.8-3.3-3.8,1.3-3.8,3.3ZM243.8,503.1h-2.4v-22.8h2.4v22.8Z"/>
    <path class="cls-13" d="M265.6,483.1c0,1.7,0,3.7-.5,6.3h3.1v2h-9.2v3.9h6.7v7.8h-2.4v-5.9h-13.7v-1.9h7v-3.9h-9.2v-2h15.2c.5-2.5.6-4.4.6-6.1h-13.2v-2h15.6v1.7Z"/>
    <path class="cls-13" d="M284.8,502h-2.3v-7.7h-3.9v-2h3.9v-3.7h-3.5c-1.1,3.8-3.5,7.1-7.8,9.7l-1.4-1.7c4.8-2.9,7.1-6.7,7.6-11.4h-6.4v-2h8.8c0,1.2,0,2.3-.3,3.4h3.1v-5.6h2.3v21ZM289.5,503.1h-2.3v-22.8h2.3v22.8Z"/>
    <path class="cls-13" d="M310.8,491.1h-10.8v-9.3h10.8v9.3ZM318.1,496.6h-6.7c.2,2,3.3,4,7.5,4.5l-.8,1.9c-3.6-.4-6.5-2-7.9-4-1.4,2-4.4,3.5-8,4l-.8-1.9c4.1-.4,7.4-2.5,7.5-4.5h-6.6v-1.8h6.7v-2.1h2.4v2.1h6.7v1.8ZM302.3,489.3h6.1v-5.5h-6.1v5.5ZM317.6,493.3h-2.4v-13h2.4v13Z"/>
    <path class="cls-13" d="M257.6,514c0,1.5,0,3.4-.5,5.9h3.1v1.9h-20.8v-1.9h15.3c.5-2.3.5-4,.5-5.5h-13.2v-1.9h15.6v1.5ZM257.6,529.9h-13.3v2.3h13.9v1.9h-16.3v-6.1h13.4v-2.2h-13.4v-1.9h15.8v6Z"/>
    <path class="cls-13" d="M282.7,531.6h-20.8v-2h9.2v-4h-6.6v-7.2h13.4v-3.2h-13.4v-2h15.8v7.1h-13.4v3.3h13.9v2h-7.3v4h9.3v2Z"/>
    <path class="cls-13" d="M303.3,523.4h-2.4v-4.9h-5v4.1h-10.5v-9.9h2.4v3h5.7v-3h2.4v3.9h5v-4.9h2.4v11.8ZM293.5,520.6v-3.1h-5.7v3.1h5.7ZM303.3,530h-12.4v2.1h13.2v1.9h-15.6v-5.8h12.4v-1.9h-12.5v-1.9h14.9v5.6Z"/>
  </g>
  <g>
    <path class="cls-13" d="M247.7,310.9h-6.1v10.5c2.8,0,4.9-.2,7.3-.6l.2,2c-2.7.6-5.1.7-8.4.7h-1.5v-14.5h8.5v2ZM258,328.9h-2.3v-11.8h-2.9v10.6h-2.2v-21.1h2.2v8.6h2.9v-9h2.3v22.8Z"/>
    <path class="cls-13" d="M262.4,324.8l-1.3-2c6.1-2.9,9-7,9.5-12.3h-8.4v-1.9h10.8c0,6.7-2.8,12.4-10.6,16.2ZM279.8,328.9h-2.4v-22.8h2.4v22.8Z"/>
    <path class="cls-13" d="M295.5,311.5h4.4v-5.3h2.4v12.2h-2.4v-4.9h-4.4c-.5,2.6-2.8,4.4-5.8,4.4s-6-2.2-6-5.3,2.5-5.3,6-5.3c3,0,5.3,1.7,5.8,4.3ZM286,312.5c0,2,1.5,3.3,3.7,3.3s3.6-1.3,3.6-3.3-1.5-3.3-3.6-3.3-3.7,1.3-3.7,3.3ZM289.9,322.1h10v-2.6h2.4v9.2h-14.8v-9.2h2.4v2.6ZM299.9,326.7v-2.6h-10v2.6h10Z"/>
  </g>
</svg>