<?xml version="1.0" encoding="utf-8"?>
<!-- Generator: Adobe Illustrator 16.0.3, SVG Export Plug-In . SVG Version: 6.00 Build 0)  -->
<!DOCTYPE svg PUBLIC "-//W3C//DTD SVG 1.1//EN" "http://www.w3.org/Graphics/SVG/1.1/DTD/svg11.dtd">
<svg version="1.1" id="Layer_1" xmlns="http://www.w3.org/2000/svg" xmlns:xlink="http://www.w3.org/1999/xlink" x="0px" y="0px"
	 width="89.083px" height="38.952px" viewBox="0 0 89.083 38.952" style="enable-background:new 0 0 89.083 38.952;"
	 xml:space="preserve">
<style type="text/css">
<![CDATA[
	.st0{fill:#E31A20;}
]]>
</style>
<g id="surface1">
	<path class="st0" d="M37.426,17.585V1.994h21.367v5.093H43.151v5.405h15.642v5.093H37.426z"/>
	<path class="st0" d="M51.025,36.905V25.094h-5.934v11.812h-5.669V25.094h-3.728v-5.093h24.936v5.093h-3.938v11.812H51.025z"/>
	<path class="st0" d="M64.674,37.008v-5.04h9.289v-7.821h5.774v7.821h9.346v5.04H64.674z"/>
	<path class="st0" d="M76.902,22.519c-2.993,0-5.774-1.049-7.82-2.94c-2.1-1.89-3.256-4.564-3.256-7.402
		c0-2.887,1.156-5.512,3.256-7.399c2.046-1.89,4.827-2.94,7.82-2.94c2.99,0,5.775,1.05,7.821,2.94
		c2.101,1.887,3.251,4.564,3.251,7.399c0,2.887-1.15,5.512-3.251,7.402C82.625,21.47,79.843,22.519,76.902,22.519 M76.747,6.669
		c-3.257,0-5.672,2.361-5.672,5.511c0,3.203,2.469,5.512,5.827,5.512c3.359,0,5.775-2.26,5.828-5.512
		c0.054-3.203-2.256-5.409-5.828-5.511C76.797,6.669,76.797,6.669,76.747,6.669"/>
	<path class="st0" d="M19.267,34.489V0h-6.878v7.665c0.209,1.206,1.152,1.677,1.837,1.891c0.209,0.053,0.734,0.156,0.787,0.156
		c-0.053,0-0.631,0.106-0.685,0.106c-0.734,0.209-1.677,0.681-1.886,1.939v22.732h-0.841V11.757c-0.209-1.206-1.209-1.73-1.89-1.939
		c-0.106,0-0.632-0.106-0.681-0.106c0.054,0,0.578-0.107,0.788-0.16c0.681-0.209,1.624-0.734,1.837-1.886V0H6.98
		C5.565,4.831,1.312,4.934,0,4.934v4.778h4.725v24.778H0v4.463h24.04v-4.463H19.267z M15.067,9.711L15.067,9.711"/>
</g>
</svg>
